<svg xmlns="http://www.w3.org/2000/svg" viewBox="0 0 58 58"><defs><style>.cls-1{fill:#61dce5;}.cls-2{fill:#fff;}</style></defs><title>refresh1</title><g id="Lager_2" data-name="Lager 2"><g id="Lager_1-2" data-name="Lager 1"><circle class="cls-1" cx="29" cy="29" r="29"/><g id="smaller"><path class="cls-2" d="M8,28.17a20.3,20.3,0,0,1,1.62-8,19.6,19.6,0,0,1,4.73-6.63A21.68,21.68,0,0,1,29.29,8,21,21,0,0,1,50,29H49a17.07,17.07,0,0,1-2.1-1.75,12.45,12.45,0,0,1-1.45-1.5,7.24,7.24,0,0,1-1-1.39,3.87,3.87,0,0,0-.21-.34c0-.06-.15-.09.22-.28l.11-.07.18-.08.36-.18L45.8,23a3.11,3.11,0,0,0,1-.58c0-.08,0-.15,0-.22l-.15-.44A19.14,19.14,0,0,0,29.27,9.61a20,20,0,0,0-13.82,5.15A17.3,17.3,0,0,0,10,28.17Z"/><path class="cls-2" d="M50,29.83a20.3,20.3,0,0,1-1.62,8,19.6,19.6,0,0,1-4.73,6.63A21.68,21.68,0,0,1,28.71,50,21,21,0,0,1,8,29H9a17.07,17.07,0,0,1,2.1,1.75,12.45,12.45,0,0,1,1.45,1.5,7.24,7.24,0,0,1,1,1.39,3.87,3.87,0,0,0,.21.34c0,.06.15.09-.22.28l-.11.07-.18.08-.36.18L12.2,35a3.11,3.11,0,0,0-.95.58c0,.08,0,.15.05.22l.15.44A19.14,19.14,0,0,0,28.73,48.39a20,20,0,0,0,13.82-5.15A17.3,17.3,0,0,0,48,29.83Z"/></g></g></g></svg>