<svg xmlns="http://www.w3.org/2000/svg" viewBox="0 0 50 49.97"><title>refresh</title><g id="Lager_2" data-name="Lager 2"><g id="Lager_1-2" data-name="Lager 1"><path d="M0,24A24.22,24.22,0,0,1,1.93,14.5,23,23,0,0,1,7.55,6.61,25.81,25.81,0,0,1,25.34,0,25,25,0,0,1,50,25H49a16.86,16.86,0,0,1-2.12-2.14A15.19,15.19,0,0,1,45.38,21a10.59,10.59,0,0,1-1.12-1.77,3.75,3.75,0,0,0-.24-.44c0-.07-.16-.11.21-.33l.1-.06.18-.1.35-.19.71-.38a2.82,2.82,0,0,0,.93-.63c0-.1,0-.18-.07-.27l-.18-.53A23.22,23.22,0,0,0,25.32,1.51a24.49,24.49,0,0,0-17,6,21.43,21.43,0,0,0-5.42,7.46A23,23,0,0,0,1,24Z"/><path d="M50,26a24,24,0,0,1-1.93,9.49,23.21,23.21,0,0,1-5.62,7.89A25.84,25.84,0,0,1,24.66,50,25,25,0,0,1,0,25H1a15.64,15.64,0,0,1,2.12,2.14A13.84,13.84,0,0,1,4.62,29a10.2,10.2,0,0,1,1.12,1.77c.07.15.16.29.24.43s.16.12-.21.33l-.1.07-.18.09-.35.19-.71.39c-.5.27-.92.52-.93.62s0,.18.07.27l.18.53A23.18,23.18,0,0,0,24.68,48.46a24.44,24.44,0,0,0,17-6,21.34,21.34,0,0,0,5.42-7.46A22.94,22.94,0,0,0,49,26Z"/></g></g></svg>